<?xml version="1.0" standalone="no"?>
<!DOCTYPE svg PUBLIC "-//W3C//DTD SVG 20010904//EN"
 "http://www.w3.org/TR/2001/REC-SVG-20010904/DTD/svg10.dtd">
<svg version="1.0" xmlns="http://www.w3.org/2000/svg"
 width="487.000000pt" height="487.000000pt" viewBox="0 0 487.000000 487.000000"
 preserveAspectRatio="xMidYMid meet">
<metadata>
Created by potrace 1.14, written by Peter Selinger 2001-2017
</metadata>
<g transform="translate(0.000000,487.000000) scale(0.100000,-0.100000)"
fill="#000000" stroke="none">
<path d="M2377 4842 c-15 -16 -32 -43 -37 -61 -5 -18 -8 -164 -7 -325 l2 -292
27 -41 c33 -49 69 -60 114 -32 56 34 58 46 59 369 1 162 -2 309 -6 325 -11 40
-62 85 -97 85 -18 0 -38 -10 -55 -28z"/>
<path d="M1656 4695 c-50 -46 -41 -85 91 -387 128 -295 150 -328 218 -328 57
0 98 67 81 133 -6 26 -171 408 -217 504 -46 97 -118 129 -173 78z"/>
<path d="M3102 4700 c-37 -22 -57 -63 -198 -392 -87 -203 -94 -230 -69 -291
19 -46 90 -50 138 -7 27 24 57 83 152 301 109 253 117 276 112 322 -7 81 -65
109 -135 67z"/>
<path d="M1058 4270 c-22 -17 -28 -30 -28 -61 0 -53 18 -86 77 -139 42 -38
107 -98 318 -295 84 -79 155 -96 200 -50 32 31 33 81 2 126 -20 30 -91 102
-154 156 -11 10 -70 65 -132 122 -137 128 -168 151 -217 158 -30 4 -45 0 -66
-17z"/>
<path d="M3705 4276 c-28 -12 -91 -67 -235 -202 -25 -24 -56 -52 -70 -64 -65
-56 -145 -137 -161 -165 -28 -45 -25 -99 7 -124 29 -23 83 -27 117 -10 18 10
175 147 238 209 8 8 59 56 113 105 54 50 105 103 113 119 50 95 -24 175 -122
132z"/>
<path d="M2386 3913 c-1 -1 -28 -5 -59 -7 -398 -35 -767 -333 -897 -726 -24
-74 -24 -71 -39 -165 -62 -373 82 -757 375 -996 l73 -59 0 -118 c1 -176 35
-261 133 -332 77 -56 111 -61 458 -60 173 0 331 2 350 5 61 8 141 56 186 112
57 70 74 130 74 266 l0 109 38 37 c21 20 65 61 97 91 254 234 371 551 331 890
-34 285 -164 527 -381 710 -134 113 -339 204 -520 230 -75 10 -213 19 -219 13z
m177 -128 c307 -32 607 -247 736 -527 69 -150 89 -244 89 -422 1 -117 -3 -157
-23 -234 -53 -204 -167 -370 -362 -525 -40 -32 -74 -61 -74 -65 -1 -4 -3 -68
-4 -142 -3 -184 -27 -238 -126 -284 -43 -21 -58 -21 -360 -21 l-315 1 -56 27
c-45 22 -60 36 -83 79 -27 50 -28 57 -29 201 l-1 150 -34 26 c-168 130 -245
216 -319 361 -172 335 -137 711 94 1015 154 205 398 339 659 364 71 7 105 6
208 -4z"/>
<path d="M2404 3760 c-50 -20 -96 -111 -61 -123 16 -5 68 12 91 32 18 16 46
70 46 91 0 12 -46 12 -76 0z"/>
<path d="M2237 3733 c-9 -20 10 -70 29 -77 23 -9 36 3 28 27 -12 39 -47 69
-57 50z"/>
<path d="M2573 3725 c-44 -19 -69 -67 -40 -78 23 -9 75 23 86 53 12 36 -2 43
-46 25z"/>
<path d="M2117 3678 c-14 -42 39 -128 79 -128 14 0 17 6 17 35 0 35 -4 45 -29
74 -26 32 -59 41 -67 19z"/>
<path d="M2677 3669 c-75 -40 -119 -149 -60 -149 69 0 163 85 163 147 0 19 -5
23 -32 23 -18 -1 -50 -10 -71 -21z"/>
<path d="M2276 3613 c-3 -3 -6 -22 -6 -42 0 -43 36 -89 71 -93 19 -2 24 2 24
22 1 31 -15 71 -35 88 -26 22 -47 32 -54 25z"/>
<path d="M2005 3596 c-15 -11 -15 -14 5 -39 16 -20 30 -27 57 -27 l35 0 -19
31 c-22 38 -54 53 -78 35z"/>
<path d="M2826 3594 c-23 -22 -21 -54 3 -54 20 0 51 35 51 57 0 18 -35 16 -54
-3z"/>
<path d="M2436 3563 c6 -33 21 -53 40 -53 19 0 18 45 -2 64 -25 26 -43 20 -38
-11z"/>
<path d="M1912 3523 c2 -11 14 -19 31 -21 29 -4 35 6 15 26 -19 19 -50 15 -46
-5z"/>
<path d="M2940 3494 c-47 -20 -87 -60 -101 -101 -13 -40 -11 -44 28 -45 41 -1
100 29 128 66 25 33 43 86 29 87 -5 0 -18 2 -29 4 -11 2 -36 -3 -55 -11z"/>
<path d="M2715 3475 c-36 -16 -60 -41 -74 -77 -14 -37 4 -51 50 -38 40 11 73
42 88 83 18 48 -4 59 -64 32z"/>
<path d="M2494 3453 c-63 -33 -99 -81 -110 -149 l-6 -37 42 6 c47 6 103 45
131 91 19 30 26 95 12 97 -5 0 -15 2 -24 4 -8 1 -28 -4 -45 -12z"/>
<path d="M1819 3452 c-33 -14 21 -93 81 -119 31 -13 70 0 70 24 -1 50 -103
114 -151 95z"/>
<path d="M2011 3451 c-18 -12 2 -55 37 -80 30 -21 92 -29 92 -11 0 52 -89 115
-129 91z"/>
<path d="M2197 3443 c-25 -24 6 -99 51 -126 30 -17 31 -17 37 3 18 57 -54 158
-88 123z"/>
<path d="M3014 3363 c-15 -16 -15 -17 2 -24 20 -7 55 9 62 29 6 18 -44 14 -64
-5z"/>
<path d="M1720 3288 c0 -39 42 -109 82 -138 38 -28 116 -48 136 -36 17 10 -7
81 -41 121 -35 43 -96 74 -144 75 -27 0 -33 -4 -33 -22z"/>
<path d="M2997 3290 c-50 -9 -114 -56 -141 -102 -11 -20 -19 -39 -16 -41 13
-13 88 -14 129 -1 63 18 148 111 124 134 -13 13 -54 17 -96 10z"/>
<path d="M2719 3273 c-61 -26 -102 -77 -114 -142 -7 -42 9 -47 71 -21 78 34
109 71 116 140 2 30 0 35 -18 36 -12 1 -37 -5 -55 -13z"/>
<path d="M2047 3267 c-8 -21 22 -101 48 -129 14 -15 38 -34 53 -42 37 -19 98
-30 105 -18 9 13 -12 83 -35 115 -39 55 -158 107 -171 74z"/>
<path d="M2327 3168 c25 -70 20 -176 -10 -240 -31 -65 -20 -72 54 -31 52 28
103 82 133 140 21 42 20 46 -6 40 -34 -9 -80 19 -129 78 -24 30 -47 54 -50 55
-4 0 0 -19 8 -42z"/>
<path d="M2437 3177 c-24 -18 -24 -47 -2 -63 18 -12 24 -12 42 1 14 10 19 22
16 35 -8 29 -36 42 -56 27z"/>
<path d="M1680 3147 c0 -25 31 -57 56 -57 29 0 31 20 4 45 -25 23 -60 30 -60
12z"/>
<path d="M3130 3144 c-52 -16 -70 -29 -94 -66 l-17 -26 38 -13 c21 -6 52 -12
71 -11 48 2 118 36 138 67 17 26 17 28 -1 41 -10 8 -26 14 -34 15 -9 0 -25 2
-36 4 -11 2 -40 -3 -65 -11z"/>
<path d="M2843 3050 c-31 -19 -59 -57 -50 -67 11 -11 77 -6 102 7 15 8 33 26
41 41 13 26 12 27 -18 33 -41 8 -39 9 -75 -14z"/>
<path d="M2030 3028 c1 -42 62 -98 108 -98 35 0 29 45 -12 86 -42 42 -96 49
-96 12z"/>
<path d="M1787 3014 c-11 -11 22 -62 55 -85 33 -24 122 -36 133 -19 10 16 -25
70 -58 90 -31 19 -116 28 -130 14z"/>
<path d="M2640 2992 c-48 -39 -13 -116 48 -106 31 6 52 29 52 58 0 27 -9 40
-37 55 -29 15 -37 14 -63 -7z"/>
<path d="M3202 2998 c-16 -16 13 -36 44 -30 27 5 32 27 8 36 -23 9 -39 7 -52
-6z"/>
<path d="M1670 2972 c0 -14 24 -32 43 -32 13 0 17 5 13 16 -3 9 -6 18 -6 20 0
2 -11 4 -25 4 -14 0 -25 -4 -25 -8z"/>
<path d="M2540 2943 c-120 -84 -155 -258 -83 -414 17 -37 35 -69 40 -72 6 -4
20 18 32 49 47 122 145 233 293 331 48 31 86 58 85 59 -1 2 -43 -8 -92 -21
-82 -21 -140 -29 -202 -26 -37 2 -56 30 -50 73 3 21 4 38 3 38 -1 0 -13 -8
-26 -17z"/>
<path d="M3064 2946 c-41 -18 -50 -34 -30 -54 34 -34 156 -9 156 32 0 27 -82
41 -126 22z"/>
<path d="M1688 2843 c-24 -6 -22 -19 6 -48 29 -29 81 -40 119 -26 24 9 26 14
17 31 -21 39 -85 58 -142 43z"/>
<path d="M2152 2838 c-45 -22 -41 -88 8 -108 40 -17 80 8 80 48 0 52 -43 81
-88 60z"/>
<path d="M3140 2821 c-47 -22 -47 -37 -3 -59 30 -15 47 -17 82 -10 59 10 78
28 54 51 -31 28 -95 36 -133 18z"/>
<path d="M2068 2663 c199 -196 254 -277 309 -453 11 -37 26 29 28 129 5 158
-37 363 -86 425 -23 29 -41 21 -32 -14 7 -26 -31 -60 -67 -60 -41 0 -271 98
-286 121 -3 5 -10 9 -16 9 -6 0 62 -71 150 -157z"/>
<path d="M2937 2756 c-43 -13 -107 -61 -107 -80 0 -17 54 -40 99 -42 69 -2
148 33 171 76 9 16 6 22 -18 34 -39 20 -100 25 -145 12z"/>
<path d="M1788 2673 c-39 -9 -3 -81 61 -123 47 -32 157 -42 167 -15 10 24 -44
94 -90 118 -37 20 -101 29 -138 20z"/>
<path d="M3155 2653 c-54 -13 -50 -46 6 -58 40 -9 89 20 68 40 -18 16 -48 24
-74 18z"/>
<path d="M2659 2578 c-79 -64 -104 -120 -106 -238 -1 -58 3 -107 11 -125 l13
-30 7 43 c14 93 61 151 187 234 79 52 98 73 56 63 -33 -9 -144 -11 -152 -3
-10 10 2 41 26 67 37 40 13 33 -42 -11z"/>
<path d="M2721 2577 c-15 -19 10 -53 33 -44 21 8 21 43 0 51 -21 8 -20 8 -33
-7z"/>
<path d="M2988 2532 c-42 -22 -42 -42 2 -65 42 -21 111 -15 147 13 l24 18 -31
22 c-39 28 -99 33 -142 12z"/>
<path d="M2022 2444 c-18 -7 -32 -18 -32 -24 0 -14 61 -50 86 -50 35 0 84 21
84 36 0 35 -87 60 -138 38z"/>
<path d="M2837 2388 c-21 -5 -54 -26 -74 -44 -35 -33 -36 -35 -17 -48 72 -51
182 -36 248 32 l28 30 -25 16 c-31 21 -111 28 -160 14z"/>
<path d="M2187 2292 c-39 -43 2 -103 57 -83 14 6 27 14 27 18 7 41 4 55 -15
68 -28 20 -49 19 -69 -3z"/>
<path d="M2071 2228 c85 -89 142 -229 143 -355 1 -79 2 -81 20 -65 50 46 107
222 103 317 -4 65 -10 74 -37 50 -35 -32 -90 -20 -188 42 -62 39 -71 41 -41
11z"/>
<path d="M2500 2120 c-25 -25 -26 -52 -1 -74 29 -26 59 -27 81 -4 54 59 -24
134 -80 78z"/>
<path d="M2683 2099 c-16 -18 -50 -49 -76 -70 -69 -55 -114 -54 -169 1 -22 22
-42 40 -43 40 -7 0 7 -101 21 -150 35 -126 87 -233 142 -292 31 -33 46 -36 37
-7 -13 40 -12 144 2 204 16 71 44 145 90 238 18 37 31 67 28 67 -3 0 -17 -14
-32 -31z"/>
<path d="M703 3634 c-21 -7 -43 -21 -50 -31 -29 -39 -4 -112 48 -139 17 -8
150 -56 296 -106 291 -99 328 -105 379 -57 40 37 25 107 -31 143 -30 19 -508
185 -567 196 -22 4 -51 2 -75 -6z"/>
<path d="M3831 3555 c-153 -51 -288 -98 -300 -105 -29 -15 -61 -68 -61 -100 1
-37 23 -60 73 -75 45 -13 46 -13 321 80 152 52 290 102 305 111 66 39 82 127
28 156 -61 32 -76 30 -366 -67z"/>
<path d="M2014 1412 c-7 -5 -11 -116 -13 -347 l-2 -341 33 -44 c17 -25 65
-103 106 -174 41 -71 90 -154 110 -185 20 -31 49 -81 65 -111 46 -87 117 -198
131 -203 7 -3 17 -2 22 1 10 7 104 167 134 227 8 17 18 32 22 35 3 3 52 84
108 180 56 96 117 198 135 225 l33 50 -1 345 -2 345 -435 2 c-239 2 -440 0
-446 -5z"/>
</g>
</svg>
